<?xml version="1.0" standalone="no"?>
<!DOCTYPE svg PUBLIC "-//W3C//DTD SVG 20010904//EN"
 "http://www.w3.org/TR/2001/REC-SVG-20010904/DTD/svg10.dtd">
<svg version="1.0" xmlns="http://www.w3.org/2000/svg"
 width="612.000000pt" height="612.000000pt" viewBox="0 0 612.000000 612.000000"
 preserveAspectRatio="xMidYMid meet">

<g transform="translate(0.000000,612.000000) scale(0.100000,-0.100000)"
fill="#000000" stroke="none">
<path d="M0 3060 l0 -3060 3060 0 3060 0 0 3060 0 3060 -3060 0 -3060 0 0
-3060z m2910 1045 l0 -465 -395 0 -395 0 0 465 0 465 395 0 395 0 0 -465z
m1715 -1045 l0 -1505 -392 -3 -393 -2 0 605 0 605 -950 0 -949 0 -17 33 c-9
17 -99 175 -200 349 -101 175 -184 321 -184 325 0 5 517 7 1150 5 l1150 -2 0
550 0 550 393 -2 392 -3 0 -1505z m-1715 -985 l0 -525 -395 0 -395 0 0 525 0
525 395 0 395 0 0 -525z"/>
</g>
</svg>
